<svg xmlns="http://www.w3.org/2000/svg" viewBox="0 0 64 64"><rect width="64" height="64" fill="#1A2E40" rx="10"/><rect width="2.4" height="52" x="30.8" y="6" fill="#D4A24C" rx="1.2"/><path fill="#D4A24C" d="M32 4 C34.6 7 34.6 10.5 32 13 C29.4 10.5 29.4 7 32 4 Z"/><ellipse cx="25" cy="16" fill="#D4A24C" rx="6.5" ry="3.4" transform="rotate(-30 25 16)"/><ellipse cx="39" cy="16" fill="#D4A24C" rx="6.5" ry="3.4" transform="rotate(30 39 16)"/><ellipse cx="23.5" cy="22" fill="#D4A24C" rx="7.2" ry="3.7" transform="rotate(-30 23.5 22)"/><ellipse cx="40.5" cy="22" fill="#D4A24C" rx="7.2" ry="3.7" transform="rotate(30 40.5 22)"/><ellipse cx="22" cy="29" fill="#D4A24C" rx="8" ry="4" transform="rotate(-30 22 29)"/><ellipse cx="42" cy="29" fill="#D4A24C" rx="8" ry="4" transform="rotate(30 42 29)"/><ellipse cx="20.5" cy="38" fill="#6BA368" rx="9" ry="4.4" transform="rotate(-30 20.5 38)"/><ellipse cx="43.5" cy="38" fill="#6BA368" rx="9" ry="4.4" transform="rotate(30 43.5 38)"/><ellipse cx="19" cy="48" fill="#6BA368" rx="10" ry="4.8" transform="rotate(-30 19 48)"/><ellipse cx="45" cy="48" fill="#6BA368" rx="10" ry="4.8" transform="rotate(30 45 48)"/></svg>