<svg xmlns="http://www.w3.org/2000/svg" viewBox="0 0 64 64" fill="none">
  <!-- Stem -->
  <rect x="30.8" y="6" width="2.4" height="52" rx="1.2" fill="#1A2E40"/>

  <!-- Top tip (gold) -->
  <path d="M32 4 C34.6 7 34.6 10.5 32 13 C29.4 10.5 29.4 7 32 4 Z" fill="#D4A24C"/>

  <!-- Gold pair 1 (top) -->
  <ellipse cx="25" cy="16" rx="6.5" ry="3.4" transform="rotate(-30 25 16)" fill="#D4A24C"/>
  <ellipse cx="39" cy="16" rx="6.5" ry="3.4" transform="rotate(30 39 16)" fill="#D4A24C"/>

  <!-- Gold pair 2 -->
  <ellipse cx="23.5" cy="22" rx="7.2" ry="3.7" transform="rotate(-30 23.5 22)" fill="#D4A24C"/>
  <ellipse cx="40.5" cy="22" rx="7.2" ry="3.7" transform="rotate(30 40.5 22)" fill="#D4A24C"/>

  <!-- Gold pair 3 -->
  <ellipse cx="22" cy="29" rx="8" ry="4" transform="rotate(-30 22 29)" fill="#D4A24C"/>
  <ellipse cx="42" cy="29" rx="8" ry="4" transform="rotate(30 42 29)" fill="#D4A24C"/>

  <!-- Green pair 1 -->
  <ellipse cx="20.5" cy="38" rx="9" ry="4.4" transform="rotate(-30 20.5 38)" fill="#6BA368"/>
  <ellipse cx="43.5" cy="38" rx="9" ry="4.4" transform="rotate(30 43.5 38)" fill="#6BA368"/>

  <!-- Green pair 2 (bottom) -->
  <ellipse cx="19" cy="48" rx="10" ry="4.8" transform="rotate(-30 19 48)" fill="#6BA368"/>
  <ellipse cx="45" cy="48" rx="10" ry="4.8" transform="rotate(30 45 48)" fill="#6BA368"/>
</svg>
